<svg xmlns="http://www.w3.org/2000/svg" viewBox="0 0 120 120" role="img" aria-label="GitHub logo">
  <rect width="120" height="120" rx="26" fill="#0b0b0b"/>
  <path fill="#ffffff" d="M60 22c-21.1 0-38.2 17.1-38.2 38.2 0 16.9 11 31.2 26.2 36.3 1.9.4 2.6-.8 2.6-1.8 0-.9 0-3.9-.1-7.1-10.6 2.3-12.9-4.5-12.9-4.5-1.7-4.4-4.1-5.5-4.1-5.5-3.4-2.3.3-2.3.3-2.3 3.7.3 5.6 3.8 5.6 3.8 3.3 5.6 8.6 4 10.7 3 .3-2.4 1.3-4 2.3-5-8.5-.9-17.4-4.2-17.4-18.6 0-4.1 1.5-7.4 3.8-10-.4-.9-1.6-4.5.4-9.4 0 0 3.1-1 10.2 3.8 3-0.8 6.2-1.2 9.4-1.2 3.2 0 6.4.4 9.4 1.2 7.1-4.8 10.2-3.8 10.2-3.8 2 4.9.7 8.5.3 9.4 2.4 2.6 3.8 5.9 3.8 10 0 14.5-8.9 17.7-17.4 18.6 1.3 1.1 2.5 3.2 2.5 6.5 0 4.7-.1 8.6-.1 9.8 0 1 .7 2.2 2.6 1.8 15.2-5.1 26.1-19.4 26.1-36.3C98.2 39.1 81.1 22 60 22z"/>
</svg>
